<?xml version="1.0" encoding="utf-8"?>
<!-- Generator: Adobe Illustrator 27.5.0, SVG Export Plug-In . SVG Version: 6.00 Build 0)  -->
<svg version="1.1" xmlns="http://www.w3.org/2000/svg" xmlns:xlink="http://www.w3.org/1999/xlink" x="0px" y="0px"
	 viewBox="0 0 500 500" style="enable-background:new 0 0 500 500;" xml:space="preserve">
<g id="Background_Complete">
	<g>
		<rect y="382.398" style="fill:#EBEBEB;" width="500" height="0.25"/>
		<rect x="52.459" y="398.494" style="fill:#EBEBEB;" width="33.122" height="0.25"/>
		<rect x="135.333" y="401.208" style="fill:#EBEBEB;" width="44.5" height="0.25"/>
		<rect x="86.582" y="389.208" style="fill:#EBEBEB;" width="70.418" height="0.25"/>
		<rect x="437.208" y="390.888" style="fill:#EBEBEB;" width="12.693" height="0.25"/>
		<rect x="391.471" y="390.888" style="fill:#EBEBEB;" width="36.833" height="0.25"/>
		<rect x="277.213" y="395.111" style="fill:#EBEBEB;" width="31.12" height="0.25"/>
		<path style="fill:#EBEBEB;" d="M237.014,337.8H43.915c-3.147,0-5.708-2.561-5.708-5.708V60.66c0-3.147,2.561-5.708,5.708-5.708
			h193.099c3.146,0,5.707,2.561,5.707,5.708v271.432C242.721,335.239,240.16,337.8,237.014,337.8z M43.915,55.203
			c-3.01,0-5.458,2.448-5.458,5.458v271.432c0,3.01,2.448,5.458,5.458,5.458h193.099c3.009,0,5.457-2.448,5.457-5.458V60.66
			c0-3.009-2.448-5.458-5.457-5.458H43.915z"/>
		<path style="fill:#EBEBEB;" d="M453.31,337.8H260.212c-3.147,0-5.707-2.561-5.707-5.708V60.66c0-3.147,2.561-5.708,5.707-5.708
			H453.31c3.148,0,5.708,2.561,5.708,5.708v271.432C459.019,335.239,456.458,337.8,453.31,337.8z M260.212,55.203
			c-3.009,0-5.457,2.448-5.457,5.458v271.432c0,3.01,2.448,5.458,5.457,5.458H453.31c3.01,0,5.458-2.448,5.458-5.458V60.66
			c0-3.009-2.448-5.458-5.458-5.458H260.212z"/>
	</g>
	<g>
		<g>
			
				<rect x="78.683" y="44.139" transform="matrix(-1.836970e-16 1 -1 -1.836970e-16 361.6924 -9.9726)" style="fill:#EBEBEB;" width="214.3" height="263.443"/>
			
				<rect x="211.198" y="175.066" transform="matrix(-1.836970e-16 1 -1 -1.836970e-16 494.2076 -142.4877)" style="fill:#E0E0E0;" width="214.3" height="1.588"/>
			
				<rect x="67.099" y="81.698" transform="matrix(-1 -1.224647e-16 1.224647e-16 -1 371.6655 351.7198)" style="fill:#F5F5F5;" width="237.467" height="188.324"/>
			<polygon style="fill:#FFFFFF;" points="175.255,270.022 207.139,270.022 154.028,81.698 122.145,81.698 			"/>
			<polygon style="fill:#FFFFFF;" points="149.662,270.022 168.098,270.022 114.987,81.698 96.551,81.698 			"/>
			<polygon style="fill:#FFFFFF;" points="251.855,270.022 259.488,270.022 206.377,81.698 198.745,81.698 			"/>
		</g>
		<g>
			<g>
				<g>
					<path style="fill:#E0E0E0;" d="M425.884,374.184H147.845c-4.047,0-7.249-3.311-7.115-7.358l6.579-198.777
						c0.134-4.047,3.555-7.358,7.602-7.358H432.95c4.047,0,7.249,3.311,7.115,7.358l-6.579,198.777
						C433.352,370.873,429.931,374.184,425.884,374.184z"/>
				</g>
				<g style="opacity:0.6;">
					<g>
						<path style="fill:#FAFAFA;" d="M423.614,374.184H145.575c-4.047,0-7.249-3.311-7.115-7.358l6.579-198.777
							c0.134-4.047,3.555-7.358,7.602-7.358H430.68c4.047,0,7.249,3.311,7.115,7.358l-6.579,198.777
							C431.082,370.873,427.661,374.184,423.614,374.184z"/>
					</g>
				</g>
				<g>
					<g>
						<path style="fill:#E0E0E0;" d="M420.033,373.821H84.236c-3.498,0-6.535,2.037-7.934,4.96
							c-0.805,1.681,0.426,3.617,2.322,3.617h347.021c1.895,0,3.126-1.937,2.322-3.617
							C426.567,375.858,423.531,373.821,420.033,373.821z"/>
					</g>
					<path style="opacity:0.6;fill:#FAFAFA;" d="M84.236,373.821h267.963c3.498,0,6.535,2.037,7.934,4.96
						c0.805,1.681-0.426,3.617-2.322,3.617H78.624c-1.895,0-3.127-1.937-2.322-3.617C77.701,375.858,80.738,373.821,84.236,373.821z
						"/>
					<path style="opacity:0.3;fill:#E0E0E0;" d="M244.412,379.275h-69.714c-1.717,0-3.122,1.406-3.122,3.123h75.958
						C247.534,380.681,246.129,379.275,244.412,379.275z"/>
				</g>
				<path style="opacity:0.9;fill:#FFFFFF;" d="M145.103,359.637l6.104-184.4c0.052-1.576,1.385-2.866,2.961-2.866h274.213
					c1.576,0,2.823,1.29,2.771,2.866l-6.104,184.4c-0.052,1.576-1.384,2.866-2.961,2.866H147.874
					C146.298,362.503,145.051,361.214,145.103,359.637z"/>
				<path style="fill:#F0F0F0;" d="M152.367,351.789l5.592-168.942c0.064-1.938,1.654-3.476,3.593-3.476h258.743
					c2.032,0,3.66,1.683,3.593,3.714l-5.592,168.942c-0.064,1.938-1.654,3.476-3.593,3.476H155.96
					C153.928,355.503,152.3,353.82,152.367,351.789z"/>
				<polygon style="fill:#FFFFFF;" points="363.443,362.511 408.9,362.511 356.514,172.371 311.056,172.371 				"/>
				<polygon style="fill:#FFFFFF;" points="334.489,362.511 350.844,362.511 298.457,172.371 282.102,172.371 				"/>
				<polygon style="fill:#FFFFFF;" points="241.411,362.511 257.766,362.511 205.379,172.371 189.024,172.371 				"/>
				<path style="opacity:0.4;fill:#FFFFFF;" d="M293.613,281.201c-0.039,1.191-1.037,2.156-2.228,2.156
					c-1.191,0-2.125-0.965-2.085-2.156c0.039-1.191,1.037-2.156,2.228-2.156C292.719,279.044,293.653,280.01,293.613,281.201z"/>
			</g>
		</g>
	</g>
</g>
<g id="Background_Simple" style="display:none;">
	<g style="display:inline;">
		<g>
			<path style="fill:#407BFF;" d="M174.442,355.465c54.975,1.179,105.621-37.222,142.591-76.529
				C472.762,141.511,294.83,20.003,172.132,74.169C49.433,128.335,7.804,351.57,174.442,355.465z"/>
		</g>
		<g style="opacity:0.9;">
			<path style="fill:#FFFFFF;" d="M174.442,355.465c54.975,1.179,105.621-37.222,142.591-76.529
				C472.762,141.511,294.83,20.003,172.132,74.169C49.433,128.335,7.804,351.57,174.442,355.465z"/>
		</g>
	</g>
</g>
<g id="Shadow_1_">
	<ellipse id="_x3C_Path_x3E__122_" style="fill:#F5F5F5;" cx="250" cy="416.238" rx="193.889" ry="11.323"/>
</g>
<g id="Cat">
	<g>
		<path style="opacity:0.5;fill:#FFFFFF;" d="M158.005,287.765c-43.777-43.777-43.777-114.743-0.012-158.507
			c43.777-43.777,114.743-43.777,158.52,0c43.764,43.764,43.764,114.731-0.012,158.507
			C272.736,331.53,201.769,331.53,158.005,287.765z"/>
		<g>
			<g>
				<path style="fill:#407BFF;" d="M262.847,151.156c2.961-3.858,6.234-8.129,11.747-13.53c2.859-2.801,11.909-8.824,15.284-9.955
					c2.64-0.885,7.644,12.784,7.603,21.32c-0.039,8.031-2.936,31.725-2.936,31.725L262.847,151.156z"/>
				<path style="opacity:0.2;fill:#FFFFFF;" d="M269.172,159.383c5.715-0.771,13.925-11.57,19.323-17.097
					c5.398-5.526,6.039,3.012,5.062,13.909c-0.481,5.372-1.678,11.742-3.394,14.745c-0.561,0.983-2.068,1.034-2.816,0.109
					C283.57,166.374,276.365,161.342,269.172,159.383z"/>
				<path style="fill:#407BFF;" d="M301.513,305.95c-2.136,1.41-4.293,2.745-6.493,3.983c-21.636,12.356-46.38,17.215-70.45,14.588
					c-21.454-2.328-42.385-10.594-60.123-24.808c4.977-8.501,8.874-15.335,10.572-19.201c7.027-16.061,10.669-18.326,11.149-32.315
					c0.47-13.989-6.108-30.072-7.817-44.361c11.395-5.382,109.835,27.19,109.835,27.19c-9.494,19.543,6.279,34.579,10.028,43.453
					C302.688,285.094,302.666,295.581,301.513,305.95z"/>
				<path style="fill:#407BFF;" d="M306.23,203.568c2.082,1.096,3.385,3.786,3.385,3.786s-0.19-9.999-5.601-17.877
					c-5.581-8.125-9.773-10.66-14.803-20.42c-5.151-9.997-17.003-22.086-33.183-23.338c-16.179-1.252-54.864-3.357-68.886,21.389
					c-4.148,7.32-6.636,14.238-7.925,20.664c-5.126,8.342-8.967,23.717-8.754,28.198c2.493-3.141,6.245-5.525,6.245-5.525
					s-2.229,13.849-1.593,21.126c3.313-3.96,6.962-6.289,9.535-7.575c6.707,11.89,30.817,29.172,64.654,25.427
					c27.589-3.053,40.039-7.346,45.735-16.449c1.879-3.003,3.851-6.828,5.613-10.736c0.991,0.9,3.114,3.195,4.805,7.564
					c1.496-7.335-0.383-14.767-0.383-14.767s2.722,2.736,4.083,4.258C309.184,213.001,308.712,209.001,306.23,203.568z"/>
				<path style="opacity:0.3;" d="M227.67,177.713c3.745-4.839,11.139-8.495,17.647-2.437
					C247.45,177.261,243.929,193.544,227.67,177.713z"/>
				<path style="opacity:0.3;" d="M289.36,176.047c-3.101-4.347-8.742-7.304-13.865-1.881
					C273.069,176.732,279.66,190.796,289.36,176.047z"/>
				<path style="fill:#FFFFFF;" d="M274.103,186.307c-9.171-0.381-14.207-0.185-13.352,4.911c0.712,4.247,10.194,9.03,13.503,7.165
					C279.219,195.585,281.92,186.632,274.103,186.307z"/>
				<path style="opacity:0.1;fill:#FFFFFF;" d="M270.575,197.417c-9.101-2.592-26.87-5.168-32.376,4.708
					c-4.109,7.37-1.973,14.945,4.273,20.375c6.705,5.829,17.309,11.474,27.854,12.398c14.749,1.292,20.854-4.131,24.746-10.048
					c5.81-8.834,8.505-23.447-2.772-27.631C285.94,194.858,276.929,196.121,270.575,197.417z"/>
				<path style="opacity:0.1;fill:#FFFFFF;" d="M295.02,309.933c-21.636,12.356-46.38,17.215-70.45,14.588
					c-4.015-11.736-4.774-26.014-1.079-40.154c6.322-24.188,26.997-18.656,37.601-12.74c7.369-3.407,17.834-6.835,25.256-1.367
					C294.699,276.433,296.526,293.072,295.02,309.933z"/>
				<path style="opacity:0.2;" d="M261.567,212.902c-2.44,0-5.154-0.509-8.128-1.527c-0.358-0.123-0.549-0.513-0.427-0.871
					c0.122-0.358,0.507-0.55,0.872-0.427c5.59,1.915,10.146,1.938,13.541,0.071c3.864-2.125,4.833-6.005,4.843-6.044
					c0.064-0.271,0.287-0.476,0.563-0.518c0.282-0.042,0.549,0.086,0.693,0.326c5.789,9.653,12.095,6.481,12.158,6.447
					c0.335-0.177,0.751-0.047,0.927,0.288c0.176,0.336,0.048,0.75-0.288,0.927c-0.071,0.037-6.955,3.508-13.214-5.76
					c-0.668,1.519-2.125,3.945-5.02,5.537C266.205,212.385,264.026,212.902,261.567,212.902z"/>
				<g>
					<path style="fill:#407BFF;" d="M211.85,151.479c-6.212-2.206-11.113-6.548-18.103-13.282
						c-5.301-5.108-9.471-12.448-14.26-12.787c-3.747-0.265-6.786,12.782-4.679,25.426c1.63,9.777,12.037,34.025,12.037,34.025
						L211.85,151.479z"/>
					<path style="opacity:0.2;fill:#FFFFFF;" d="M201.174,154.024c1.432-0.867,1.381-2.947-0.052-3.811
						c-5.069-3.054-11.275-9.569-14.983-13.979c-4.883-5.807-6.494,4.204-4.407,14.913c0.727,3.733,2.519,7.517,4.171,10.423
						c1.326,2.333,4.573,2.561,6.228,0.448C194.428,159.082,197.632,156.167,201.174,154.024z"/>
				</g>
			</g>
			<g>
				<path style="fill:#FFFFFF;" d="M296.493,168.068l-84.559,1.768c-0.473,0.01-0.872-0.366-0.89-0.84l0,0
					c-0.018-0.473,0.351-0.865,0.824-0.875l84.559-1.768c0.473-0.01,0.872,0.366,0.89,0.84v0
					C297.336,167.667,296.967,168.058,296.493,168.068z"/>
				<polygon style="fill:#FFFFFF;" points="222.749,187.955 200.806,188.414 200.04,168.368 221.983,167.91 				"/>
				<path style="opacity:0.3;" d="M213.696,178.162c0,1.271-1.031,2.302-2.302,2.302c-1.271,0-2.302-1.031-2.302-2.302
					c0-1.271,1.031-2.302,2.302-2.302C212.665,175.86,213.696,176.891,213.696,178.162z"/>
				<path style="opacity:0.2;fill:#FFFFFF;" d="M222.703,186.757l28.639-0.599c2.319-0.049,4.127-1.968,4.038-4.288l-0.527-13.79
					l-32.838,0.687L222.703,186.757z"/>
				<g>
					<path style="fill:#FFFFFF;" d="M180.703,188.834l20.103-0.42l-0.766-20.045l-19.997,0.418
						c-1.717,0.036-3.072,1.473-3.006,3.189l0.531,13.904C177.632,187.554,179.027,188.869,180.703,188.834z"/>
					<path style="opacity:0.3;fill:#407BFF;" d="M180.703,188.834l20.103-0.42l-0.766-20.045l-19.997,0.418
						c-1.717,0.036-3.072,1.473-3.006,3.189l0.531,13.904C177.632,187.554,179.027,188.869,180.703,188.834z"/>
				</g>
			</g>
		</g>
		<g>
			<path style="fill:#407BFF;" d="M399.677,350.591c-0.456-2.22-1.35-4.002-2.553-5.476c-2.588-2.764-5.349-5.356-8.066-7.991
				c-2.738-2.615-5.5-5.205-8.323-7.734c-2.789-2.563-5.657-5.048-8.524-7.533c-5.778-4.927-11.695-9.715-17.83-14.284
				c-2.8-2.074-5.635-4.113-8.528-6.094c1.344-3.669,0.555-7.944-2.39-10.888l-4.213-4.214c-0.756-0.756-1.601-1.371-2.5-1.844
				c37.603-49.09,33.962-119.645-10.953-164.559c-48.895-48.895-128.192-48.895-177.087,0
				c-48.895,48.895-48.884,128.181,0.011,177.076c44.918,44.918,115.472,48.566,164.561,10.954c0.473,0.898,1.087,1.742,1.843,2.498
				l4.213,4.214c2.945,2.945,7.219,3.734,10.889,2.39c1.981,2.893,4.02,5.728,6.094,8.528c4.57,6.135,9.358,12.052,14.284,17.83
				c2.486,2.867,4.97,5.735,7.533,8.524c2.529,2.823,5.119,5.586,7.734,8.323c2.635,2.718,5.227,5.478,7.991,8.066
				c1.474,1.202,3.256,2.097,5.476,2.553c2.245,0.431,4.808,0.544,8.345-0.317c5.571-1.369,10.226-5.718,11.677-11.677
				C400.221,355.399,400.108,352.837,399.677,350.591z M154.736,291.035c-45.582-45.582-45.582-119.476-0.013-165.046
				c45.583-45.582,119.477-45.582,165.059,0c45.57,45.57,45.57,119.464-0.013,165.046
				C274.2,336.605,200.305,336.605,154.736,291.035z"/>
			<g>
				<path style="opacity:0.2;" d="M399.677,350.591c-0.456-2.22-1.35-4.002-2.553-5.476c-2.588-2.764-5.349-5.356-8.066-7.991
					c-2.738-2.615-5.5-5.205-8.323-7.734c-2.789-2.563-5.657-5.048-8.524-7.533c-5.778-4.927-11.695-9.715-17.83-14.284
					c-2.8-2.074-5.635-4.113-8.528-6.094c1.344-3.669,0.555-7.944-2.39-10.888l-4.213-4.214c-0.756-0.756-1.601-1.371-2.5-1.844
					c37.603-49.09,33.962-119.645-10.953-164.559c-48.895-48.895-128.192-48.895-177.087,0
					c-48.895,48.895-48.884,128.181,0.011,177.076c44.918,44.918,115.472,48.566,164.561,10.954
					c0.473,0.898,1.087,1.742,1.843,2.498l4.213,4.214c2.945,2.945,7.219,3.734,10.889,2.39c1.981,2.893,4.02,5.728,6.094,8.528
					c4.57,6.135,9.358,12.052,14.284,17.83c2.486,2.867,4.97,5.735,7.533,8.524c2.529,2.823,5.119,5.586,7.734,8.323
					c2.635,2.718,5.227,5.478,7.991,8.066c1.474,1.202,3.256,2.097,5.476,2.553c2.245,0.431,4.808,0.544,8.345-0.317
					c5.571-1.369,10.226-5.718,11.677-11.677C400.221,355.399,400.108,352.837,399.677,350.591z M154.736,291.035
					c-45.582-45.582-45.582-119.476-0.013-165.046c45.583-45.582,119.477-45.582,165.059,0c45.57,45.57,45.57,119.464-0.013,165.046
					C274.2,336.605,200.305,336.605,154.736,291.035z"/>
				<path style="opacity:0.3;" d="M330.226,317.105l15.626-15.627C345.853,301.479,341.702,313.377,330.226,317.105z"/>
			</g>
			<g>
				<path style="fill:#407BFF;" d="M354.264,157.007c-1.493-3.41-3.152-6.786-4.93-10.036l0.936-0.512
					c1.794,3.277,3.465,6.682,4.971,10.12L354.264,157.007z M345,139.643c-4.953-7.767-10.778-15.02-17.316-21.558l0.755-0.755
					c6.592,6.592,12.468,13.906,17.462,21.739L345,139.643z"/>
				<path style="opacity:0.2;" d="M354.264,157.007c-1.493-3.41-3.152-6.786-4.93-10.036l0.936-0.512
					c1.794,3.277,3.465,6.682,4.971,10.12L354.264,157.007z M345,139.643c-4.953-7.767-10.778-15.02-17.316-21.558l0.755-0.755
					c6.592,6.592,12.468,13.906,17.462,21.739L345,139.643z"/>
			</g>
		</g>
	</g>
</g>
</svg>
